<?xml version="1.0" encoding="UTF-8"?>
<svg version="1.1" xmlns="http://www.w3.org/2000/svg" width="500" height="500">
<path d="M0 0 C165 0 330 0 500 0 C500 165 500 330 500 500 C335 500 170 500 0 500 C0 335 0 170 0 0 Z " fill="#1C2120" transform="translate(0,0)"/>
<path d="M0 0 C3.5625 0.3125 3.5625 0.3125 5.5 1.375 C7.16824411 4.41709219 7.25096582 6.99029096 6.5625 10.3125 C4.64314719 14.277109 2.23798933 17.89152073 -0.1875 21.5625 C-0.86619141 22.61791992 -1.54488281 23.67333984 -2.24414062 24.76074219 C-3.63247594 26.91871231 -5.02700996 29.07270715 -6.42773438 31.22265625 C-9.30385155 35.64444184 -12.12335938 40.10111318 -14.9375 44.5625 C-15.42484619 45.33239258 -15.91219238 46.10228516 -16.41430664 46.89550781 C-24.87423579 58.79967981 -24.87423579 58.79967981 -28.61108398 72.36914062 C-28.62457382 73.18008179 -28.63806366 73.99102295 -28.65196228 74.82653809 C-28.66240067 75.69846802 -28.67283905 76.57039795 -28.68359375 77.46875 C-28.71652052 79.31380704 -28.74973236 81.158859 -28.78320312 83.00390625 C-28.83069358 85.91386563 -28.87515208 88.82380275 -28.91430664 91.73388672 C-28.95395492 94.54155439 -29.00550355 97.34880889 -29.05859375 100.15625 C-29.0670079 101.02817993 -29.07542206 101.90010986 -29.08409119 102.79846191 C-29.10073318 103.60940308 -29.11737518 104.42034424 -29.13452148 105.25585938 C-29.14482895 105.96850952 -29.15513641 106.68115967 -29.16575623 107.41540527 C-29.4375 109.3125 -29.4375 109.3125 -31.4375 112.3125 C-33.48008728 112.69345093 -33.48008728 112.69345093 -36.02319336 112.70068359 C-36.97435532 112.71014008 -37.92551727 112.71959656 -38.90550232 112.7293396 C-39.93570999 112.72326691 -40.96591766 112.71719421 -42.02734375 112.7109375 C-43.08280899 112.71380768 -44.13827423 112.71667786 -45.22572327 112.71963501 C-47.46095312 112.72167921 -49.69620071 112.7161246 -51.93139648 112.70361328 C-55.35766569 112.68758111 -58.78275232 112.70344235 -62.20898438 112.72265625 C-64.37760678 112.72067357 -66.54622844 112.71682938 -68.71484375 112.7109375 C-69.74302719 112.71701019 -70.77121063 112.72308289 -71.83055115 112.7293396 C-72.78486526 112.71988312 -73.73917938 112.71042664 -74.72241211 112.70068359 C-75.56243271 112.69829681 -76.40245331 112.69591003 -77.26792908 112.69345093 C-79.96524232 112.21983471 -80.84626245 111.51962738 -82.4375 109.3125 C-82.76870542 106.4498454 -82.92614092 103.79283396 -82.94921875 100.92578125 C-82.97614555 99.70026802 -82.97614555 99.70026802 -83.00361633 98.44999695 C-83.05777788 95.84171706 -83.09163308 93.23362075 -83.125 90.625 C-83.15816799 88.85609421 -83.19265717 87.08721267 -83.22851562 85.31835938 C-83.31350746 80.98320527 -83.38029035 76.64810616 -83.4375 72.3125 C-86.90897842 71.56292843 -86.90897842 71.56292843 -90.4375 71.3125 C-90.45208252 72.44792236 -90.46666504 73.58334473 -90.48168945 74.75317383 C-90.53963676 78.96345609 -90.61686941 83.1732015 -90.69995117 87.38305664 C-90.7332174 89.20555919 -90.76124406 91.02816519 -90.78393555 92.85083008 C-90.81745081 95.4700125 -90.86976352 98.08824548 -90.92578125 100.70703125 C-90.93536613 101.93061089 -90.93536613 101.93061089 -90.94514465 103.1789093 C-91.09301707 108.86069335 -91.09301707 108.86069335 -92.74577332 111.02836609 C-95.55069257 113.15748775 -98.05530877 112.67487763 -101.4375 112.3125 C-103.64561869 110.71432134 -104.34637306 109.81943412 -104.83190918 107.11842346 C-104.84453796 105.84079384 -104.84453796 105.84079384 -104.85742188 104.53735352 C-104.87333374 103.56947403 -104.88924561 102.60159454 -104.90563965 101.60438538 C-104.90584106 100.56060226 -104.90604248 99.51681915 -104.90625 98.44140625 C-104.91386353 97.36753159 -104.92147705 96.29365692 -104.92932129 95.1872406 C-104.94013146 92.91513394 -104.94297169 90.64297754 -104.93847656 88.37084961 C-104.93750463 84.89157338 -104.97911016 81.4145043 -105.0234375 77.93554688 C-105.02864459 75.72917127 -105.03133269 73.52278799 -105.03125 71.31640625 C-105.04764526 70.27464737 -105.06404053 69.23288849 -105.08093262 68.15956116 C-105.01216827 60.98391976 -105.01216827 60.98391976 -102.22753906 57.73046875 C-91.63033536 52.34470054 -79.55121333 52.67085674 -67.93896484 52.30395508 C-47.60227386 51.82776217 -47.60227386 51.82776217 -30.4375 42.3125 C-28.38091327 39.6037008 -28.38091327 39.6037008 -26.66796875 36.62890625 C-25.68207764 34.99888672 -25.68207764 34.99888672 -24.67626953 33.3359375 C-23.99247518 32.1823141 -23.3087193 31.02866789 -22.625 29.875 C-21.91648281 28.69844639 -21.20667858 27.5226669 -20.49560547 26.34765625 C-19.10323207 24.04641573 -17.71468687 21.74304946 -16.32861328 19.43798828 C-13.96185558 15.52639105 -11.53765508 11.65621421 -9.0625 7.8125 C-8.39476562 6.7709375 -7.72703125 5.729375 -7.0390625 4.65625 C-4.11278271 0.37388934 -4.11278271 0.37388934 0 0 Z " fill="#FCFCFC" transform="translate(313.4375,283.6875)"/>
<path d="M0 0 C8.38912864 6.11452525 15.30494005 13.81461579 18 24 C19.4204094 36.95886843 18.03923074 46.97366572 9.9309082 57.32910156 C8.96004012 58.53725063 7.97481545 59.7340495 6.97338867 60.91699219 C2.33656906 66.45077035 0.28869579 72.13391262 -2 79 C-13.22 79 -24.44 79 -36 79 C-37.485 74.05 -37.485 74.05 -39 69 C-41.49440199 64.88133624 -44.13918969 61.12329224 -47.0625 57.30859375 C-55.02861662 46.7798477 -57.0978803 38.76968296 -55.75390625 25.5859375 C-53.96359527 15.13938066 -47.44458073 7.05485836 -39 1 C-27.88143949 -6.35866082 -11.58862529 -6.75700409 0 0 Z " fill="#FAFAFA" transform="translate(268,139)"/>
<path d="M0 0 C7.52768154 4.28005328 12.68538641 10.01598924 15.90625 18.08203125 C17.96952437 25.68421479 16.97790417 33.46219746 13.5625 40.5 C9.30968909 47.91515749 3.32735109 52.17051725 -4.25 55.875 C-13.42861367 57.67472817 -20.51357982 56.9365023 -28.73828125 52.32421875 C-36.41289956 47.13746513 -40.36583797 40.48537437 -42.4375 31.5 C-43.58544657 22.91998699 -41.90253251 16.35104551 -36.89453125 9.33984375 C-27.50137746 -2.15978389 -13.98585066 -6.51613497 0 0 Z " fill="#F8F8F8" transform="translate(265.4375,270.5)"/>
<path d="M0 0 C4.54882262 3.27515229 8.54018627 7.8117511 9.85546875 13.3359375 C10.88241672 20.51050549 9.10782478 25.529836 4.85546875 31.3359375 C0.51516372 35.56495266 -3.94747322 38.12331898 -10.01953125 38.7109375 C-16.77522017 38.37637005 -21.42803025 36.49923052 -26.01953125 31.4609375 C-30.12795157 26.30435528 -31.64629019 22.26986209 -31.44921875 15.66796875 C-30.51845639 8.54405683 -26.42956666 4.21509872 -21.14453125 -0.31640625 C-14.86818374 -4.54558572 -6.32616772 -3.56083692 0 0 Z " fill="#202524" transform="translate(263.14453125,279.6640625)"/>
<path d="M0 0 C4.41884299 2.16925019 7.05081082 4.45189192 9 9 C9.57677114 12.87260623 9.19115569 14.63239291 7.375 18.125 C4.79071804 21.25334133 2.61542616 23.15539481 -1 25 C-5.28571429 24.71428571 -5.28571429 24.71428571 -7 23 C-7.04080783 21.00041636 -7.04254356 18.99954746 -7 17 C-5.02 16.34 -3.04 15.68 -1 15 C-1.33 13.35 -1.66 11.7 -2 10 C-3.99954746 9.95745644 -6.00041636 9.95919217 -8 10 C-9.52365258 11.52365258 -9.13937579 12.88832729 -9.15771484 15.01318359 C-9.16797699 15.86431732 -9.17823914 16.71545105 -9.18881226 17.59237671 C-9.19611359 18.51837677 -9.20341492 19.44437683 -9.2109375 20.3984375 C-9.23900528 22.34115427 -9.26766974 24.2838625 -9.296875 26.2265625 C-9.33817461 29.30338309 -9.37504315 32.380044 -9.40136719 35.45703125 C-9.42891509 38.41700606 -9.47478803 41.37624453 -9.5234375 44.3359375 C-9.52669037 45.2578891 -9.52994324 46.1798407 -9.53329468 47.12973022 C-9.54986115 47.98716827 -9.56642761 48.84460632 -9.58349609 49.72802734 C-9.59158295 50.48223969 -9.5996698 51.23645203 -9.60800171 52.01351929 C-10.10500073 54.53209908 -10.97861411 55.45983965 -13 57 C-15.97397616 56.72963853 -16.85446026 56.14553974 -19 54 C-19.26069641 52.08476257 -19.26069641 52.08476257 -19.2746582 49.72143555 C-19.28419022 48.83679123 -19.29372223 47.95214691 -19.30354309 47.04069519 C-19.30263168 46.08238297 -19.30172028 45.12407074 -19.30078125 44.13671875 C-19.30506638 43.15258499 -19.3093515 42.16845123 -19.31376648 41.15449524 C-19.31951742 39.06890635 -19.32000444 36.9832974 -19.31567383 34.89770508 C-19.31252299 31.71074972 -19.33593203 28.52473049 -19.36132812 25.33789062 C-19.36360199 23.31250117 -19.36430421 21.28710922 -19.36328125 19.26171875 C-19.372491 18.30947922 -19.38170074 17.35723969 -19.39118958 16.37614441 C-19.35676727 11.43505432 -19.25793441 7.98558996 -16 4 C-11.06047423 -0.45762082 -6.38357758 -1.02760029 0 0 Z " fill="#202524" transform="translate(270,159)"/>
<path d="M0 0 C3.41666404 1.59246254 6.27125802 3.54251604 8 7 C8.09991754 8.53136204 8.1383184 10.06695995 8.14526367 11.6015625 C8.15164352 12.55595215 8.15802338 13.5103418 8.16459656 14.49365234 C8.16570938 15.52699707 8.1668222 16.5603418 8.16796875 17.625 C8.17129715 18.68283691 8.17462555 19.74067383 8.17805481 20.83056641 C8.18312356 23.06998255 8.18546315 25.30940625 8.18530273 27.54882812 C8.18749096 30.98580266 8.20565216 34.42245724 8.22460938 37.859375 C8.22754288 40.0312489 8.22952796 42.20312433 8.23046875 44.375 C8.23765427 45.40834473 8.24483978 46.44168945 8.25224304 47.50634766 C8.24916641 48.4607373 8.24608978 49.41512695 8.24291992 50.3984375 C8.24434494 51.24067871 8.24576996 52.08291992 8.24723816 52.95068359 C8 55 8 55 6 57 C1.44444444 56.44444444 1.44444444 56.44444444 0 55 C-0.11666533 53.66056972 -0.16716505 52.31526401 -0.18945312 50.97094727 C-0.20617065 50.11658585 -0.22288818 49.26222443 -0.2401123 48.38197327 C-0.25368774 47.45283615 -0.26726318 46.52369904 -0.28125 45.56640625 C-0.29965942 44.61813461 -0.31806885 43.66986298 -0.33703613 42.69285583 C-0.39598672 39.649469 -0.44871137 36.60602505 -0.5 33.5625 C-0.56750396 29.56367893 -0.64120005 25.56504366 -0.71875 21.56640625 C-0.73232544 20.63929337 -0.74590088 19.71218048 -0.7598877 18.75697327 C-0.77660522 17.89945969 -0.79332275 17.04194611 -0.81054688 16.15844727 C-0.82307495 15.40201431 -0.83560303 14.64558136 -0.84851074 13.8662262 C-0.89059481 11.90765944 -0.89059481 11.90765944 -2 10 C-3.98 10 -5.96 10 -8 10 C-8.33 11.32 -8.66 12.64 -9 14 C-8.01 14.556875 -7.02 15.11375 -6 15.6875 C-3 18 -3 18 -2.5 20.625 C-3 23 -3 23 -5 25 C-10.29240604 24.80028656 -13.20826938 23.68339546 -17 20 C-19.68761942 15.96857086 -19.92537664 12.73667363 -19 8 C-14.26808002 0.16185034 -8.84112098 -1.11882136 0 0 Z " fill="#202524" transform="translate(239,159)"/>
<path d="M0 0 C0.85428589 -0.00953201 1.70857178 -0.01906403 2.58874512 -0.02888489 C3.51272095 -0.02797348 4.43669678 -0.02706207 5.38867188 -0.02612305 C6.33552856 -0.03040817 7.28238525 -0.0346933 8.25793457 -0.03910828 C10.26195475 -0.04485711 12.26599579 -0.04534778 14.27001953 -0.04101562 C17.34508639 -0.03785448 20.41919274 -0.06131207 23.49414062 -0.08666992 C25.43814982 -0.08894264 27.38216162 -0.08964654 29.32617188 -0.08862305 C30.25014771 -0.09783279 31.17412354 -0.10704254 32.12609863 -0.11653137 C32.98038452 -0.11030258 33.83467041 -0.10407379 34.71484375 -0.09765625 C35.4682605 -0.09828568 36.22167725 -0.0989151 36.9979248 -0.0995636 C38.85742188 0.2746582 38.85742188 0.2746582 40.85742188 3.2746582 C40.30186632 8.83021376 40.30186632 8.83021376 38.85742188 10.2746582 C37.48132306 10.37261132 36.10028305 10.40263908 34.72070312 10.40405273 C33.40428833 10.40878098 33.40428833 10.40878098 32.0612793 10.41360474 C31.10713135 10.41158051 30.1529834 10.40955627 29.16992188 10.4074707 C27.71066284 10.40890579 27.71066284 10.40890579 26.22192383 10.41036987 C24.16064388 10.41105179 22.09936179 10.40919673 20.03808594 10.4050293 C16.87104499 10.39968121 13.70414588 10.40497392 10.53710938 10.41137695 C8.53971323 10.41071617 6.54231717 10.40943502 4.54492188 10.4074707 C3.59077393 10.40949493 2.63662598 10.41151917 1.65356445 10.41360474 C0.77595459 10.41045258 -0.10165527 10.40730042 -1.00585938 10.40405273 C-1.78227783 10.40325714 -2.55869629 10.40246155 -3.35864258 10.40164185 C-5.14257812 10.2746582 -5.14257812 10.2746582 -6.14257812 9.2746582 C-6.33007812 5.8371582 -6.33007812 5.8371582 -6.14257812 2.2746582 C-3.7568409 -0.11107902 -3.24727124 0.01985813 0 0 Z " fill="#F8F8F8" transform="translate(232.142578125,226.725341796875)"/>
<path d="M0 0 C7.92 0 15.84 0 24 0 C22.08529001 4.78677498 20.50232001 7.58556905 16 10 C11.88659609 10.93376684 8.8187501 10.50944451 5.1875 8.25 C0 2.91428571 0 2.91428571 0 0 Z " fill="#F1F2F2" transform="translate(237,246)"/>
<path d="M0 0 C2 3 2 3 1.890625 4.98046875 C0.69474768 7.69217303 -0.79754247 8.67617486 -3.25 10.3125 C-4.01828125 10.84488281 -4.7865625 11.37726563 -5.578125 11.92578125 C-8.53270699 13.23628132 -9.96615806 12.97815249 -13 12 C-14 11 -14 11 -14.375 8.6875 C-14 6 -14 6 -11.75 3.8125 C-4.97276853 -0.65431165 -4.97276853 -0.65431165 0 0 Z " fill="#F3F4F4" transform="translate(309,136)"/>
<path d="M0 0 C1.76150391 -0.02126953 1.76150391 -0.02126953 3.55859375 -0.04296875 C6.5625 0.1875 6.5625 0.1875 8.5625 2.1875 C8.23278521 5.48464793 7.9398161 6.8101839 5.5625 9.1875 C3.06640625 9.48828125 3.06640625 9.48828125 0.125 9.5 C-1.32712891 9.52513672 -1.32712891 9.52513672 -2.80859375 9.55078125 C-5.4375 9.1875 -5.4375 9.1875 -7.30078125 7.83203125 C-8.4375 6.1875 -8.4375 6.1875 -8.1875 3.5625 C-6.75687001 -0.96782831 -4.44724587 0.02435513 0 0 Z " fill="#F5F5F5" transform="translate(187.4375,168.8125)"/>
<path d="M0 0 C4.30328816 0.6548482 7.68775069 2.46633539 10.875 5.4375 C11.5 8.625 11.5 8.625 10.875 11.4375 C10.215 12.0975 9.555 12.7575 8.875 13.4375 C3.99571445 13.2939916 -0.50751357 10.58199789 -4.125 7.4375 C-4.75 4.75 -4.75 4.75 -4.125 2.4375 C-2.125 0.4375 -2.125 0.4375 0 0 Z " fill="#F5F6F6" transform="translate(192.125,135.5625)"/>
<path d="M0 0 C2.6484375 0.32421875 2.6484375 0.32421875 4.484375 2.1171875 C4.99226562 2.90738281 5.50015625 3.69757813 6.0234375 4.51171875 C6.54679688 5.28902344 7.07015625 6.06632812 7.609375 6.8671875 C8.86497755 9.8362627 8.62161123 11.2948231 7.6484375 14.32421875 C6.6484375 15.32421875 6.6484375 15.32421875 3.5859375 15.38671875 C2.6165625 15.36609375 1.6471875 15.34546875 0.6484375 15.32421875 C-0.22348197 13.93940547 -1.07346634 12.54076629 -1.9140625 11.13671875 C-2.38972656 10.35941406 -2.86539063 9.58210938 -3.35546875 8.78125 C-4.55568197 5.82072406 -4.30210098 4.33166017 -3.3515625 1.32421875 C-2.3515625 0.32421875 -2.3515625 0.32421875 0 0 Z " fill="#F6F6F6" transform="translate(216.3515625,111.67578125)"/>
<path d="M0 0 C1.17433594 0.01417969 2.34867187 0.02835938 3.55859375 0.04296875 C5.32396484 0.05263672 5.32396484 0.05263672 7.125 0.0625 C9.99609375 0.23046875 9.99609375 0.23046875 10.99609375 1.23046875 C11.18359375 4.16796875 11.18359375 4.16796875 10.99609375 7.23046875 C8.99609375 9.23046875 8.99609375 9.23046875 6.24609375 9.49609375 C5.17359375 9.4909375 4.10109375 9.48578125 2.99609375 9.48046875 C1.38734375 9.48820313 1.38734375 9.48820313 -0.25390625 9.49609375 C-3.00390625 9.23046875 -3.00390625 9.23046875 -5.00390625 7.23046875 C-5.25390625 4.73046875 -5.25390625 4.73046875 -5.00390625 2.23046875 C-3.00390625 0.23046875 -3.00390625 0.23046875 0 0 Z " fill="#F5F5F5" transform="translate(308.00390625,168.76953125)"/>
<path d="M0 0 C1.3125 1.9375 1.3125 1.9375 2 5 C0.55574726 8.51514407 -1.28574613 12.28574613 -4 15 C-7 15.125 -7 15.125 -10 15 C-11 14 -11 14 -11.3125 11.375 C-10.90047141 6.92509128 -9.47213684 4.70820526 -7 1 C-4.53721199 -0.231394 -2.7204945 -0.07159196 0 0 Z " fill="#F8F8F8" transform="translate(285,112)"/>
<path d="M0 0 C5.56818182 0.56818182 5.56818182 0.56818182 7 2 C7.15135944 3.7872057 7.22175778 5.58161876 7.25 7.375 C7.28867188 8.84066406 7.28867188 8.84066406 7.328125 10.3359375 C7 13 7 13 5.6484375 14.8671875 C4 16 4 16 1.375 15.75 C-1 15 -1 15 -2 14 C-2.12514928 12.02380553 -2.1757276 10.04261827 -2.1875 8.0625 C-2.20167969 6.98097656 -2.21585938 5.89945312 -2.23046875 4.78515625 C-2 2 -2 2 0 0 Z " fill="#F2F3F3" transform="translate(247,104)"/>
<path d="M0 0 C1.010625 0.0825 2.02125 0.165 3.0625 0.25 C5.12287303 3.34055955 5.31049242 3.95926162 5.28955078 7.44604492 C5.28932419 8.70701241 5.28932419 8.70701241 5.28909302 9.99345398 C5.27877045 10.89666885 5.26844788 11.79988373 5.2578125 12.73046875 C5.2549826 13.65845779 5.25215271 14.58644684 5.24923706 15.54255676 C5.23803836 18.50766879 5.21293435 21.47247921 5.1875 24.4375 C5.1774698 26.44726126 5.16834402 28.45702726 5.16015625 30.46679688 C5.13810004 35.39464753 5.10357229 40.32227262 5.0625 45.25 C4.7325 45.25 4.4025 45.25 4.0625 45.25 C4.04791748 44.2712793 4.03333496 43.29255859 4.01831055 42.28417969 C3.96024894 38.64595374 3.8830174 35.00834164 3.80004883 31.37060547 C3.76683628 29.79746478 3.73879283 28.22420599 3.71606445 26.65087891 C3.68244972 24.38653328 3.63013376 22.12326635 3.57421875 19.859375 C3.56782883 19.15818542 3.5614389 18.45699585 3.55485535 17.73455811 C3.43202235 13.63654195 3.00011417 11.18366871 0.0625 8.25 C-2.52193323 6.51509754 -2.52193323 6.51509754 -4.9375 5.25 C-3.82553359 0.32557733 -3.82553359 0.32557733 0 0 Z " fill="#CCCDCD" transform="translate(233.9375,167.75)"/>
<path d="M0 0 C2.9375 0.1875 2.9375 0.1875 3.9375 1.1875 C3.97813832 2.85367115 3.980221 4.52138095 3.9375 6.1875 C3.133125 6.414375 2.32875 6.64125 1.5 6.875 C0.654375 7.308125 -0.19125 7.74125 -1.0625 8.1875 C-1.95636164 10.73525306 -1.95636164 10.73525306 -2.0625 13.1875 C-2.3925 13.1875 -2.7225 13.1875 -3.0625 13.1875 C-3.3925 23.0875 -3.7225 32.9875 -4.0625 43.1875 C-4.3925 43.1875 -4.7225 43.1875 -5.0625 43.1875 C-5.11184656 37.38510386 -5.14819402 31.58282919 -5.17236328 25.78027344 C-5.18243627 23.80531691 -5.19609521 21.83037534 -5.21337891 19.85546875 C-5.23757039 17.02079582 -5.24896991 14.18631962 -5.2578125 11.3515625 C-5.26813507 10.46506012 -5.27845764 9.57855774 -5.28909302 8.66519165 C-5.2894907 6.50464048 -5.18522534 4.34456282 -5.0625 2.1875 C-3.0625 0.1875 -3.0625 0.1875 0 0 Z " fill="#E0E1E1" transform="translate(265.0625,167.8125)"/>
</svg>

